<svg width="140" height="81" viewBox="0 0 140 81" fill="none" xmlns="http://www.w3.org/2000/svg">
<path d="M81.0494 11.0676C81.0494 8.02729 78.6434 5.54838 75.6359 5.4135C75.5047 2.406 73.0185 2.86102e-06 69.9818 2.86102e-06C66.9451 2.86102e-06 64.4589 2.406 64.3277 5.4135C61.3238 5.54474 58.9142 8.02364 58.9142 11.0676C58.9142 14.1115 61.3238 16.5868 64.3277 16.7217C64.4626 19.7292 66.9451 22.1352 69.9818 22.1352C73.0185 22.1352 75.501 19.7255 75.6359 16.7217C78.6434 16.5905 81.0494 14.1043 81.0494 11.0676ZM80.1453 10.6301H75.6468V6.2957C78.0164 6.42329 79.9339 8.28247 80.1453 10.6301ZM74.7683 15.8577H70.4192V14.724C70.5651 14.1881 70.8786 13.4189 71.5603 12.7226C72.2748 11.9935 73.0695 11.6655 73.6272 11.5123H74.761V15.8541H74.7646L74.7683 15.8577ZM65.188 11.505H66.329C66.8613 11.6363 67.6268 11.9352 68.3195 12.6023C69.1069 13.3606 69.4167 14.2318 69.537 14.713V15.8504H65.1917V11.5014H65.188V11.505ZM65.188 6.27747H69.5334V7.42579C69.4277 7.94709 69.1761 8.69805 68.5418 9.38704C67.7654 10.2291 66.8394 10.5244 66.3327 10.6265H65.1807V6.27383H65.1844L65.188 6.27747ZM69.9891 13.408C69.7558 12.9414 69.4167 12.4383 68.9319 11.968C68.5273 11.578 68.1044 11.2936 67.7034 11.0895C68.1919 10.8525 68.7168 10.5026 69.198 9.98125C69.5699 9.57661 69.836 9.15373 70.0219 8.74909C70.2771 9.22664 70.6416 9.74065 71.1556 10.2109C71.5129 10.5427 71.9212 10.827 72.355 11.053C71.892 11.29 71.3926 11.6217 70.9296 12.0993C70.514 12.5331 70.2078 12.9851 69.9891 13.408ZM73.6382 10.6301C73.1388 10.4843 72.4206 10.1818 71.7571 9.57296C70.9661 8.84387 70.5979 8.00542 70.4229 7.41485V6.28476H74.7719V10.6338H73.6382V10.6301ZM74.7537 5.40256H70.4192V0.904075C72.7633 1.11551 74.6261 3.03302 74.7537 5.40256ZM69.5407 0.904075V5.40256H65.2062C65.3338 3.03302 67.193 1.11551 69.5407 0.904075ZM64.3131 6.29205V10.6265H59.8146C60.0261 8.28247 61.9436 6.42329 64.3131 6.29205ZM59.8146 11.505H64.3131V15.8395C61.9436 15.7119 60.0261 13.8527 59.8146 11.505ZM65.2026 16.7326H69.537V21.2311C67.1967 21.0197 65.3375 19.1022 65.2026 16.7326ZM70.4192 21.2311V16.7326H74.7537C74.6261 19.1022 72.7669 21.016 70.4192 21.2311ZM75.6468 15.8395V11.505H80.1453C79.9339 13.8527 78.0164 15.7119 75.6468 15.8395Z" fill="white"/>
<path d="M13.8199 80.4442H12.8612V76.6712H11.4978V75.7452H15.1797V76.6712H13.8199V80.4442Z" fill="white"/>
<path d="M19.1568 77.5752V75.7452H20.1156V80.4442H19.1568V78.5048H17.2393V80.4442H16.2769V75.7452H17.2393V77.5752H19.1568Z" fill="white"/>
<path d="M22.5471 78.4902V79.5292H24.8693V80.4442H21.5847V75.7452H24.8037V76.6566H22.5471V77.6044H24.5485V78.4902H22.5471Z" fill="white"/>
<path d="M29.3021 76.6566V77.8778H30.2208C30.4067 77.8778 30.5635 77.8231 30.6874 77.7065C30.815 77.5935 30.877 77.4476 30.877 77.269C30.877 77.0904 30.815 76.9409 30.6874 76.8279C30.5598 76.7149 30.4067 76.6566 30.2208 76.6566H29.3021ZM30.866 80.4442L29.9255 78.7527H29.3058V80.4442H28.3434V75.7452H30.2536C30.5525 75.7452 30.8223 75.8108 31.0629 75.9421C31.3071 76.0733 31.4967 76.2519 31.6352 76.4816C31.7738 76.7113 31.843 76.9701 31.843 77.2617C31.843 77.5534 31.7555 77.8341 31.5805 78.071C31.4056 78.3116 31.1686 78.4866 30.8697 78.6032L31.9779 80.4442H30.8697H30.866Z" fill="white"/>
<path d="M34.0995 75.7452H33.1371V80.4478H34.0995V75.7452Z" fill="white"/>
<path d="M37.519 80.4442H36.5603V76.6712H35.1932V75.7452H38.8788V76.6712H37.519V80.4442Z" fill="white"/>
<path d="M41.8316 80.5317C41.4634 80.5317 41.1317 80.4478 40.84 80.2838C40.552 80.1198 40.3297 79.8901 40.1729 79.6021C40.0162 79.3141 39.9396 78.9933 39.9396 78.6397V75.7452H40.8984V78.6397C40.8984 78.9204 40.9822 79.1537 41.1463 79.336C41.3103 79.5146 41.54 79.6057 41.8316 79.6057C42.1232 79.6057 42.3492 79.5146 42.5169 79.336C42.6846 79.1537 42.7685 78.9204 42.7685 78.6397V75.7452H43.7272V78.6397C43.7272 78.9933 43.647 79.3141 43.4903 79.6021C43.3335 79.8901 43.1112 80.1161 42.8232 80.2838C42.5352 80.4478 42.2034 80.5317 41.8316 80.5317Z" fill="white"/>
<path d="M47.4237 78.5887L46.8513 76.9409L46.279 78.5887H47.4237ZM49.0897 80.4442H48.0799L47.7372 79.4782H45.9619L45.6192 80.4442H44.6458L46.3957 75.7452H47.3362L49.0824 80.4442H49.0897Z" fill="white"/>
<path d="M53.1908 80.4442H50.0484V75.7452H51.0108V79.5183H53.1908V80.4442Z" fill="white"/>
<path d="M58.5423 79.6057C58.7866 79.6057 59.0089 79.5401 59.2131 79.4089C59.4209 79.2777 59.5849 79.0954 59.7089 78.8657C59.8328 78.6361 59.8948 78.3772 59.8948 78.0965C59.8948 77.8158 59.8328 77.5607 59.7089 77.331C59.5849 77.1013 59.4209 76.919 59.2131 76.7878C59.0089 76.6566 58.7866 76.591 58.5423 76.591C58.2981 76.591 58.0794 76.6566 57.8716 76.7878C57.6638 76.919 57.4997 77.1013 57.3758 77.331C57.2518 77.5607 57.1899 77.8158 57.1899 78.0965C57.1899 78.3772 57.2518 78.6361 57.3758 78.8657C57.4997 79.099 57.6638 79.2777 57.8716 79.4089C58.0794 79.5401 58.3017 79.6057 58.5423 79.6057ZM58.5423 80.5317C58.1304 80.5317 57.7476 80.4223 57.394 80.2072C57.0404 79.9922 56.7561 79.6969 56.5483 79.325C56.3368 78.9496 56.2348 78.5413 56.2348 78.0965C56.2348 77.6518 56.3405 77.2508 56.5483 76.8753C56.7597 76.4998 57.0404 76.2045 57.394 75.9895C57.7476 75.7707 58.1304 75.6614 58.5423 75.6614C58.9543 75.6614 59.337 75.7707 59.6906 75.9895C60.0443 76.2045 60.325 76.4998 60.5364 76.8753C60.7442 77.2471 60.8499 77.6554 60.8499 78.0965C60.8499 78.5376 60.7442 78.9496 60.5364 79.325C60.325 79.6969 60.0443 79.9922 59.6906 80.2072C59.337 80.4223 58.9543 80.5317 58.5423 80.5317Z" fill="white"/>
<path d="M65.25 75.7452V76.6712H63.0335V77.8012H64.9401V78.6834H63.0335V80.4442H62.0711V75.7452H65.25Z" fill="white"/>
<path d="M70.9259 78.5887L70.3536 76.9409L69.7812 78.5887H70.9259ZM72.5919 80.4442H71.5821L71.2394 79.4782H69.4641L69.1214 80.4442H68.1481L69.8979 75.7452H70.8384L72.5846 80.4442H72.5919Z" fill="white"/>
<path d="M74.513 76.6566V77.8778H75.4317C75.6176 77.8778 75.7744 77.8231 75.8983 77.7065C76.0259 77.5935 76.0879 77.4476 76.0879 77.269C76.0879 77.0904 76.0259 76.9409 75.8983 76.8279C75.7707 76.7149 75.6176 76.6566 75.4317 76.6566H74.513ZM76.0769 80.4442L75.1364 78.7527H74.5167V80.4442H73.5543V75.7452H75.4645C75.7634 75.7452 76.0332 75.8108 76.2738 75.9421C76.518 76.0733 76.7076 76.2519 76.8461 76.4816C76.9847 76.7113 77.0539 76.9701 77.0539 77.2617C77.0539 77.5534 76.9664 77.8341 76.7914 78.071C76.6165 78.3116 76.3795 78.4866 76.0806 78.6032L77.1888 80.4442H76.0806H76.0769Z" fill="white"/>
<path d="M80.2984 80.4442H79.3396V76.6712H77.9762V75.7452H81.6581V76.6712H80.2984V80.4442Z" fill="white"/>
<path d="M85.9306 75.7452V76.6712H83.7142V77.8012H85.6207V78.6834H83.7142V80.4442H82.7518V75.7452H85.9306Z" fill="white"/>
<path d="M88.9818 80.5317C88.6136 80.5317 88.2819 80.4478 87.9902 80.2838C87.7022 80.1198 87.4799 79.8901 87.3231 79.6021C87.1664 79.3141 87.0898 78.9933 87.0898 78.6397V75.7452H88.0486V78.6397C88.0486 78.9204 88.1324 79.1537 88.2965 79.336C88.4605 79.5146 88.6902 79.6057 88.9818 79.6057C89.2734 79.6057 89.4995 79.5146 89.6672 79.336C89.8348 79.1537 89.9187 78.9204 89.9187 78.6397V75.7452H90.8774V78.6397C90.8774 78.9933 90.7972 79.3141 90.6405 79.6021C90.4837 79.8901 90.2614 80.1161 89.9734 80.2838C89.6854 80.4478 89.3536 80.5317 88.9818 80.5317Z" fill="white"/>
<path d="M95.4525 80.4442H92.3101V75.7452H93.2762V79.5183H95.4525V80.4442Z" fill="white"/>
<path d="M100.855 77.9689H103.002V80.4442H102.434L102.266 79.8281C102.12 80.0213 101.92 80.1854 101.657 80.3239C101.398 80.4624 101.114 80.5317 100.8 80.5317C100.388 80.5317 100.006 80.4223 99.652 80.2072C99.2984 79.9922 99.0141 79.6969 98.8063 79.325C98.5949 78.9496 98.4928 78.5413 98.4928 78.0965C98.4928 77.6518 98.5985 77.2508 98.8063 76.8753C99.0141 76.4998 99.2984 76.2045 99.652 75.9895C100.006 75.7707 100.388 75.6614 100.8 75.6614C101.176 75.6614 101.515 75.7416 101.817 75.8947C102.12 76.0514 102.368 76.2556 102.557 76.5071C102.747 76.755 102.871 77.0175 102.933 77.2872H101.934C101.865 77.1086 101.734 76.9482 101.533 76.806C101.336 76.6602 101.096 76.591 100.804 76.591C100.563 76.591 100.341 76.6566 100.133 76.7878C99.9255 76.919 99.7614 77.1013 99.6375 77.331C99.5135 77.5607 99.4516 77.8158 99.4516 78.0965C99.4516 78.3772 99.5135 78.6361 99.6375 78.8657C99.7614 79.099 99.9255 79.2777 100.133 79.4089C100.341 79.5401 100.563 79.6057 100.804 79.6057C101.132 79.6057 101.395 79.5183 101.591 79.3506C101.792 79.1792 101.92 78.9933 101.978 78.7892H100.851V77.9689H100.855Z" fill="white"/>
<path d="M105.383 75.7452H104.42V80.4478H105.383V75.7452Z" fill="white"/>
<path d="M108.594 79.1282L109.746 75.7452H110.727L109.054 80.4442H108.08L106.414 75.7452H107.435L108.594 79.1282Z" fill="white"/>
<path d="M112.721 75.7452H111.759V80.4478H112.721V75.7452Z" fill="white"/>
<path d="M117.158 78.8183V75.7452H118.084V80.4442H117.205L115.116 77.3674V80.4442H114.19V75.7452H115.072L117.158 78.8183Z" fill="white"/>
<path d="M121.663 77.9689H123.811V80.4442H123.242L123.074 79.8281C122.928 80.0213 122.728 80.1854 122.465 80.3239C122.207 80.4624 121.922 80.5317 121.609 80.5317C121.197 80.5317 120.814 80.4223 120.46 80.2072C120.107 79.9922 119.822 79.6969 119.615 79.325C119.403 78.9496 119.301 78.5413 119.301 78.0965C119.301 77.6518 119.407 77.2508 119.615 76.8753C119.826 76.4998 120.107 76.2045 120.46 75.9895C120.814 75.7707 121.197 75.6614 121.609 75.6614C121.984 75.6614 122.323 75.7416 122.626 75.8947C122.928 76.0514 123.176 76.2556 123.366 76.5071C123.555 76.755 123.679 77.0175 123.741 77.2872H122.742C122.673 77.1086 122.538 76.9482 122.341 76.806C122.145 76.6602 121.904 76.591 121.612 76.591C121.372 76.591 121.149 76.6566 120.942 76.7878C120.734 76.919 120.57 77.1013 120.446 77.331C120.322 77.5607 120.26 77.8158 120.26 78.0965C120.26 78.3772 120.322 78.6361 120.446 78.8657C120.57 79.099 120.734 79.2777 120.942 79.4089C121.149 79.5401 121.372 79.6057 121.612 79.6057C121.94 79.6057 122.203 79.5183 122.4 79.3506C122.6 79.1792 122.728 78.9933 122.786 78.7892H121.66V77.9689H121.663Z" fill="white"/>
<path d="M12.2013 34.3985C11.1369 34.3985 10.3421 34.4823 9.80991 34.65C9.28132 34.8177 8.88397 35.175 8.62879 35.7181C8.36996 36.265 8.24237 37.1289 8.24237 38.3137V47.5075H19.3464V38.27C19.3464 37.0852 19.2261 36.2285 18.9819 35.6999C18.7413 35.1713 18.3549 34.8214 17.8226 34.6537C17.2904 34.486 16.4665 34.4021 15.3437 34.4021V33.6293H27.7237V34.4021H27.4065C26.404 34.4313 25.653 34.5297 25.1536 34.6974C24.6542 34.8651 24.2751 35.2224 24.0162 35.7655C23.7574 36.3124 23.6298 37.1617 23.6298 38.3137V59.9786C23.6298 61.1634 23.7574 62.0274 24.0162 62.5742C24.2751 63.121 24.6761 63.4746 25.2229 63.6423C25.7697 63.81 26.6045 63.8938 27.7273 63.8938V64.6667H15.3474V63.8938H15.7556C16.7253 63.8938 17.4617 63.7954 17.9611 63.5986C18.4642 63.4017 18.8178 63.0226 19.0293 62.4612C19.2407 61.8998 19.3501 61.0723 19.3501 59.9786V49.2391H8.24601V59.9786C8.24601 61.0723 8.35902 61.8998 8.58869 62.4612C8.81835 63.0226 9.17196 63.4017 9.6568 63.5986C10.1416 63.7954 10.8562 63.8938 11.7967 63.8938H12.205V64.6667H0V63.8938H0.408291C1.31965 63.8938 2.02323 63.7954 2.52265 63.5986C3.02573 63.4017 3.39027 63.0299 3.61629 62.4831C3.84231 61.9362 3.95896 61.1014 3.95896 59.9786V38.3137C3.95896 36.7352 3.70743 35.689 3.208 35.175C2.70857 34.6573 1.85189 34.3985 0.637954 34.3985H0V33.6257H12.2013V34.3985Z" fill="white"/>
<path d="M50.1979 56.016H50.289V38.2663C50.289 37.1144 50.1614 36.265 49.9026 35.7181C49.6474 35.175 49.2355 34.8177 48.6741 34.65C48.1127 34.4823 47.2998 34.3985 46.2389 34.3985V33.6257H55.2067V34.3985C54.0839 34.3985 53.271 34.6427 52.7716 35.1276C52.2722 35.6124 52.0206 36.3998 52.0206 37.4935V65.1661H51.3827L33.7241 39.9979H33.633V59.9786C33.633 61.1014 33.7533 61.9435 33.9975 62.5049C34.2417 63.0663 34.6172 63.4309 35.1349 63.5949C35.6525 63.7626 36.3962 63.861 37.3659 63.8902H38.0002V64.663H28.3981V63.8902C29.674 63.8282 30.5744 63.5876 31.1067 63.1648C31.6389 62.7382 31.905 61.8888 31.905 60.6129V37.4935C31.7847 37.3404 31.6535 37.1654 31.5186 36.9685C31.3801 36.7717 31.2233 36.5675 31.041 36.3561C30.4651 35.565 29.9875 35.0437 29.6084 34.7849C29.2292 34.5261 28.6022 34.3985 27.72 34.3985V33.6257H34.4568L50.2015 56.016H50.1979Z" fill="white"/>
<path d="M80.601 34.3985C79.7807 34.3985 79.1683 34.5261 78.7564 34.7849C78.3481 35.0401 78.1439 35.5031 78.1439 36.1738C78.1439 36.5675 78.2496 37.1144 78.4647 37.8106L83.5173 55.8338H83.6085L87.3851 43.0455L85.8832 37.7195C85.5515 36.6259 85.1724 35.8239 84.7458 35.3099C84.323 34.7922 83.5793 34.4896 82.5185 34.3985V33.6257H93.5314V34.3985C92.3794 34.3985 91.5337 34.5516 91.0051 34.8542C90.4728 35.1567 90.2104 35.7036 90.2104 36.491C90.2104 36.8847 90.3307 37.5226 90.5749 38.4048L95.3104 55.6551H95.3978L100.086 38.9991C100.388 37.9966 100.542 37.2091 100.542 36.6295C100.542 35.8421 100.29 35.2734 99.7906 34.9234C99.2912 34.5735 98.4783 34.3985 97.3555 34.3985V33.6257H105.321V34.3985C104.745 34.4605 104.275 34.6099 103.91 34.8542C103.545 35.0948 103.221 35.5213 102.933 36.1264C102.645 36.7316 102.331 37.6429 102 38.8569L94.3516 65.3447H93.535L88.3002 46.228H88.209L82.5185 65.3447H81.8331L74.0501 38.1715C73.6564 36.8373 73.2444 35.9041 72.8179 35.3755C72.395 34.8432 71.7279 34.5151 70.8166 34.3948V33.622H80.601V34.3948V34.3985Z" fill="white"/>
<path d="M115.28 34.3985C114.46 34.3985 113.848 34.5261 113.436 34.7849C113.027 35.0401 112.823 35.5031 112.823 36.1738C112.823 36.5675 112.929 37.1144 113.144 37.8106L118.197 55.8338H118.288L122.064 43.0455L120.562 37.7195C120.231 36.6259 119.852 35.8239 119.425 35.3099C119.002 34.7922 118.259 34.4896 117.198 34.3985V33.6257H128.211V34.3985C127.055 34.3985 126.213 34.5516 125.684 34.8542C125.152 35.1567 124.89 35.7036 124.89 36.491C124.89 36.8847 125.01 37.5226 125.254 38.4048L129.99 55.6551H130.077L134.765 38.9991C135.068 37.9966 135.221 37.2091 135.221 36.6295C135.221 35.8421 134.969 35.2734 134.47 34.9234C133.97 34.5735 133.157 34.3985 132.035 34.3985V33.6257H140V34.3985C139.424 34.4605 138.954 34.6099 138.589 34.8542C138.225 35.0948 137.9 35.5213 137.612 36.1264C137.324 36.7316 137.011 37.6429 136.679 38.8569L129.031 65.3447H128.214L122.979 46.228H122.888L117.198 65.3447H116.512L108.729 38.1715C108.336 36.8373 107.924 35.9041 107.497 35.3755C107.074 34.8432 106.407 34.5151 105.496 34.3948V33.622H115.28V34.3948V34.3985Z" fill="white"/>
<path d="M58.7866 43.5413C58.7866 46.742 59.1365 49.0641 59.8365 50.5041C60.5364 51.944 61.6847 52.6622 63.2778 52.6622C64.8708 52.6622 66.1066 51.8967 66.7701 50.3583C67.4336 48.8235 67.7653 46.5488 67.7653 43.5376C67.7653 40.2786 67.4008 37.9419 66.6717 36.5347C65.9426 35.1239 64.8016 34.4167 63.2486 34.4167C61.9399 34.4167 60.9593 34.8943 60.3067 35.853C59.6542 36.8081 59.235 37.9309 59.0563 39.2178C58.8777 40.5046 58.7866 41.9446 58.7866 43.5376M63.2778 33.4252C64.9255 33.4252 66.329 33.9027 67.481 34.8615C68.6366 35.8166 69.5042 37.067 70.0802 38.6126C70.6598 40.1547 70.9478 41.7988 70.9478 43.5413C70.9478 45.2838 70.6562 46.9498 70.0802 48.4845C69.5042 50.0193 68.6366 51.2624 67.481 52.2211C66.3254 53.1762 64.9255 53.6538 63.2778 53.6538C61.63 53.6538 60.3104 53.1944 59.1548 52.2758C57.9992 51.3571 57.117 50.125 56.5118 48.5829C55.903 47.0409 55.6041 45.3567 55.6041 43.5413C55.6041 41.7259 55.8921 40.1547 56.4717 38.6126C57.0477 37.067 57.9153 35.8166 59.0709 34.8615C60.2265 33.9027 61.63 33.4252 63.2778 33.4252Z" fill="white"/>
<path d="M66.8285 56.1983H59.1767V57.4122H66.8285V56.1983Z" fill="white"/>
</svg>
