<svg width="140" height="81" viewBox="0 0 140 81" fill="none" xmlns="http://www.w3.org/2000/svg">
<path d="M81.0492 11.0676C81.0492 8.02729 78.6432 5.54838 75.6357 5.4135C75.5045 2.406 73.0183 0 69.9817 0C66.945 0 64.4588 2.406 64.3276 5.4135C61.3237 5.54473 58.9141 8.02364 58.9141 11.0676C58.9141 14.1115 61.3237 16.5868 64.3276 16.7217C64.4624 19.7292 66.945 22.1352 69.9817 22.1352C73.0183 22.1352 75.5009 19.7255 75.6357 16.7217C78.6432 16.5905 81.0492 14.1043 81.0492 11.0676ZM80.1452 10.6301H75.6467V6.2957C78.0162 6.42329 79.9337 8.28247 80.1452 10.6301ZM74.7681 15.8577H70.4191V14.724C70.5649 14.1881 70.8784 13.4189 71.5601 12.7226C72.2746 11.9935 73.0694 11.6654 73.6271 11.5123H74.7608V15.8541H74.7645L74.7681 15.8577ZM65.1879 11.505H66.3289C66.8611 11.6363 67.6267 11.9352 68.3193 12.6023C69.1068 13.3606 69.4166 14.2318 69.5369 14.713V15.8504H65.1915V11.5014H65.1879V11.505ZM65.1879 6.27747H69.5333V7.42579C69.4275 7.94709 69.176 8.69805 68.5417 9.38704C67.7652 10.2291 66.8393 10.5244 66.3326 10.6265H65.1806V6.27382H65.1842L65.1879 6.27747ZM69.9889 13.408C69.7556 12.9414 69.4166 12.4383 68.9318 11.968C68.5271 11.578 68.1042 11.2936 67.7032 11.0895C68.1917 10.8525 68.7167 10.5025 69.1979 9.98125C69.5697 9.5766 69.8358 9.15373 70.0218 8.74909C70.2769 9.22664 70.6415 9.74065 71.1555 10.2109C71.5127 10.5426 71.921 10.827 72.3548 11.053C71.8919 11.29 71.3924 11.6217 70.9295 12.0993C70.5139 12.5331 70.2077 12.9851 69.9889 13.408ZM73.638 10.6301C73.1386 10.4843 72.4205 10.1817 71.757 9.57296C70.9659 8.84387 70.5977 8.00541 70.4228 7.41485V6.28476H74.7718V10.6338H73.638V10.6301ZM74.7536 5.40256H70.4191V0.904072C72.7631 1.11551 74.626 3.03302 74.7536 5.40256ZM69.5406 0.904072V5.40256H65.2061C65.3337 3.03302 67.1929 1.11551 69.5406 0.904072ZM64.313 6.29205V10.6265H59.8145C60.0259 8.28247 61.9434 6.42329 64.313 6.29205ZM59.8145 11.505H64.313V15.8395C61.9434 15.7119 60.0259 13.8527 59.8145 11.505ZM65.2025 16.7326H69.5369V21.2311C67.1965 21.0197 65.3373 19.1022 65.2025 16.7326ZM70.4191 21.2311V16.7326H74.7536C74.626 19.1022 72.7668 21.016 70.4191 21.2311ZM75.6467 15.8395V11.505H80.1452C79.9337 13.8527 78.0162 15.7119 75.6467 15.8395Z" fill="#0D5E4C"/>
<path d="M13.8202 80.4442H12.8614V76.6712H11.498V75.7452H15.18V76.6712H13.8202V80.4442Z" fill="#0D5E4C"/>
<path d="M19.1572 77.5752V75.7452H20.116V80.4442H19.1572V78.5048H17.2397V80.4442H16.2773V75.7452H17.2397V77.5752H19.1572Z" fill="#0D5E4C"/>
<path d="M22.5464 78.4902V79.5292H24.8685V80.4442H21.584V75.7452H24.8029V76.6566H22.5464V77.6044H24.5477V78.4902H22.5464Z" fill="#0D5E4C"/>
<path d="M29.3025 76.6566V77.8778H30.2212C30.4071 77.8778 30.5638 77.8231 30.6878 77.7065C30.8154 77.5935 30.8773 77.4476 30.8773 77.269C30.8773 77.0904 30.8154 76.9409 30.6878 76.8279C30.5602 76.7149 30.4071 76.6566 30.2212 76.6566H29.3025ZM30.8664 80.4442L29.9259 78.7527H29.3061V80.4442H28.3438V75.7452H30.254C30.5529 75.7452 30.8227 75.8108 31.0633 75.9421C31.3075 76.0733 31.4971 76.2519 31.6356 76.4816C31.7741 76.7113 31.8434 76.9701 31.8434 77.2617C31.8434 77.5534 31.7559 77.8341 31.5809 78.071C31.4059 78.3116 31.169 78.4866 30.87 78.6032L31.9783 80.4442H30.8664Z" fill="#0D5E4C"/>
<path d="M34.0991 75.7452H33.1367V80.4478H34.0991V75.7452Z" fill="#0D5E4C"/>
<path d="M37.5192 80.4442H36.5604V76.6712H35.1934V75.7452H38.8789V76.6712H37.5192V80.4442Z" fill="#0D5E4C"/>
<path d="M41.8314 80.5317C41.4633 80.5317 41.1315 80.4478 40.8399 80.2838C40.5519 80.1197 40.3295 79.8901 40.1728 79.6021C40.016 79.3141 39.9395 78.9933 39.9395 78.6397V75.7452H40.8982V78.6397C40.8982 78.9204 40.9821 79.1537 41.1461 79.336C41.3101 79.5146 41.5398 79.6057 41.8314 79.6057C42.1231 79.6057 42.3491 79.5146 42.5168 79.336C42.6845 79.1537 42.7683 78.9204 42.7683 78.6397V75.7452H43.7271V78.6397C43.7271 78.9933 43.6469 79.3141 43.4901 79.6021C43.3334 79.8901 43.111 80.1161 42.823 80.2838C42.535 80.4478 42.2033 80.5317 41.8314 80.5317Z" fill="#0D5E4C"/>
<path d="M47.4243 78.5887L46.852 76.9409L46.2796 78.5887H47.4243ZM49.0903 80.4442H48.0805L47.7378 79.4781H45.9625L45.6198 80.4442H44.6465L46.3963 75.7452H47.3368L49.083 80.4442H49.0903Z" fill="#0D5E4C"/>
<path d="M53.1912 80.4442H50.0488V75.7452H51.0112V79.5182H53.1912V80.4442Z" fill="#0D5E4C"/>
<path d="M58.5419 79.6057C58.7862 79.6057 59.0086 79.5401 59.2127 79.4089C59.4205 79.2777 59.5845 79.0954 59.7085 78.8657C59.8324 78.6361 59.8944 78.3772 59.8944 78.0965C59.8944 77.8158 59.8324 77.5606 59.7085 77.331C59.5845 77.1013 59.4205 76.919 59.2127 76.7878C59.0086 76.6566 58.7862 76.591 58.5419 76.591C58.2977 76.591 58.079 76.6566 57.8712 76.7878C57.6634 76.919 57.4994 77.1013 57.3754 77.331C57.2515 77.5606 57.1895 77.8158 57.1895 78.0965C57.1895 78.3772 57.2515 78.6361 57.3754 78.8657C57.4994 79.099 57.6634 79.2777 57.8712 79.4089C58.079 79.5401 58.3013 79.6057 58.5419 79.6057ZM58.5419 80.5317C58.13 80.5317 57.7472 80.4223 57.3936 80.2072C57.04 79.9922 56.7557 79.6969 56.5479 79.3251C56.3364 78.9496 56.2344 78.5413 56.2344 78.0965C56.2344 77.6518 56.3401 77.2508 56.5479 76.8753C56.7593 76.4998 57.04 76.2045 57.3936 75.9895C57.7472 75.7707 58.13 75.6614 58.5419 75.6614C58.9539 75.6614 59.3367 75.7707 59.6903 75.9895C60.0439 76.2045 60.3246 76.4998 60.536 76.8753C60.7438 77.2471 60.8495 77.6554 60.8495 78.0965C60.8495 78.5376 60.7438 78.9496 60.536 79.3251C60.3246 79.6969 60.0439 79.9922 59.6903 80.2072C59.3367 80.4223 58.9539 80.5317 58.5419 80.5317Z" fill="#0D5E4C"/>
<path d="M65.2491 75.7452V76.6712H63.0327V77.8012H64.9393V78.6834H63.0327V80.4442H62.0703V75.7452H65.2491Z" fill="#0D5E4C"/>
<path d="M70.9263 78.5887L70.3539 76.9409L69.7816 78.5887H70.9263ZM72.5922 80.4442H71.5825L71.2398 79.4781H69.4644L69.1218 80.4442H68.1484L69.8983 75.7452H70.8388L72.585 80.4442H72.5922Z" fill="#0D5E4C"/>
<path d="M74.5134 76.6566V77.8778H75.4321C75.618 77.8778 75.7748 77.8231 75.8987 77.7065C76.0263 77.5935 76.0883 77.4476 76.0883 77.269C76.0883 77.0904 76.0263 76.9409 75.8987 76.8279C75.7711 76.7149 75.618 76.6566 75.4321 76.6566H74.5134ZM76.0773 80.4442L75.1368 78.7527H74.5171V80.4442H73.5547V75.7452H75.4649C75.7638 75.7452 76.0336 75.8108 76.2742 75.9421C76.5184 76.0733 76.708 76.2519 76.8465 76.4816C76.9851 76.7113 77.0543 76.9701 77.0543 77.2617C77.0543 77.5534 76.9668 77.8341 76.7918 78.071C76.6169 78.3116 76.3799 78.4866 76.081 78.6032L77.1892 80.4442H76.0773Z" fill="#0D5E4C"/>
<path d="M80.2987 80.4442H79.34V76.6712H77.9766V75.7452H81.6585V76.6712H80.2987V80.4442Z" fill="#0D5E4C"/>
<path d="M85.9308 75.7452V76.6712H83.7144V77.8012H85.6209V78.6834H83.7144V80.4442H82.752V75.7452H85.9308Z" fill="#0D5E4C"/>
<path d="M88.9818 80.5317C88.6136 80.5317 88.2819 80.4478 87.9903 80.2838C87.7023 80.1197 87.4799 79.8901 87.3232 79.6021C87.1664 79.3141 87.0898 78.9933 87.0898 78.6397V75.7452H88.0486V78.6397C88.0486 78.9204 88.1324 79.1537 88.2965 79.336C88.4605 79.5146 88.6902 79.6057 88.9818 79.6057C89.2735 79.6057 89.4995 79.5146 89.6672 79.336C89.8349 79.1537 89.9187 78.9204 89.9187 78.6397V75.7452H90.8775V78.6397C90.8775 78.9933 90.7973 79.3141 90.6405 79.6021C90.4838 79.8901 90.2614 80.1161 89.9734 80.2838C89.6854 80.4478 89.3537 80.5317 88.9818 80.5317Z" fill="#0D5E4C"/>
<path d="M95.4529 80.4442H92.3105V75.7452H93.2766V79.5182H95.4529V80.4442Z" fill="#0D5E4C"/>
<path d="M103.002 77.9689V80.4442H102.433L102.265 79.8281C102.119 80.0213 101.919 80.1854 101.656 80.3239C101.398 80.4624 101.113 80.5317 100.8 80.5317C100.388 80.5317 100.005 80.4223 99.6514 80.2072C99.2978 79.9922 99.0135 79.6969 98.8057 79.3251C98.5943 78.9496 98.4922 78.5413 98.4922 78.0965C98.4922 77.6518 98.5979 77.2508 98.8057 76.8753C99.0135 76.4998 99.2978 76.2045 99.6514 75.9895C100.005 75.7707 100.388 75.6614 100.8 75.6614C101.175 75.6614 101.514 75.7416 101.817 75.8947C102.119 76.0514 102.367 76.2556 102.557 76.5071C102.746 76.755 102.87 77.0175 102.932 77.2872H101.933C101.864 77.1086 101.733 76.9482 101.532 76.806C101.336 76.6602 101.095 76.591 100.803 76.591C100.563 76.591 100.34 76.6566 100.133 76.7878C99.9249 76.919 99.7608 77.1013 99.6369 77.331C99.5129 77.5606 99.4509 77.8158 99.4509 78.0965C99.4509 78.3772 99.5129 78.6361 99.6369 78.8657C99.7608 79.099 99.9249 79.2777 100.133 79.4089C100.34 79.5401 100.563 79.6057 100.803 79.6057C101.132 79.6057 101.394 79.5183 101.591 79.3506C101.791 79.1792 101.919 78.9933 101.977 78.7892H100.851V77.9689H103.002Z" fill="#0D5E4C"/>
<path d="M105.382 75.7452H104.42V80.4478H105.382V75.7452Z" fill="#0D5E4C"/>
<path d="M108.594 79.1282L109.746 75.7452H110.727L109.053 80.4442H108.08L106.414 75.7452H107.435L108.594 79.1282Z" fill="#0D5E4C"/>
<path d="M112.72 75.7452H111.758V80.4478H112.72V75.7452Z" fill="#0D5E4C"/>
<path d="M117.157 78.8183V75.7452H118.083V80.4442H117.204L115.115 77.3674V80.4442H114.189V75.7452H115.072L117.157 78.8183Z" fill="#0D5E4C"/>
<path d="M123.81 77.9689V80.4442H123.242L123.074 79.8281C122.928 80.0213 122.728 80.1854 122.465 80.3239C122.206 80.4624 121.922 80.5317 121.608 80.5317C121.196 80.5317 120.814 80.4223 120.46 80.2072C120.106 79.9922 119.822 79.6969 119.614 79.3251C119.403 78.9496 119.301 78.5413 119.301 78.0965C119.301 77.6518 119.406 77.2508 119.614 76.8753C119.826 76.4998 120.106 76.2045 120.46 75.9895C120.814 75.7707 121.196 75.6614 121.608 75.6614C121.984 75.6614 122.323 75.7416 122.625 75.8947C122.928 76.0514 123.176 76.2556 123.365 76.5071C123.555 76.755 123.679 77.0175 123.741 77.2872H122.742C122.673 77.1086 122.538 76.9482 122.341 76.806C122.144 76.6602 121.904 76.591 121.612 76.591C121.371 76.591 121.149 76.6566 120.941 76.7878C120.733 76.919 120.569 77.1013 120.445 77.331C120.322 77.5606 120.26 77.8158 120.26 78.0965C120.26 78.3772 120.322 78.6361 120.445 78.8657C120.569 79.099 120.733 79.2777 120.941 79.4089C121.149 79.5401 121.371 79.6057 121.612 79.6057C121.94 79.6057 122.203 79.5183 122.399 79.3506C122.6 79.1792 122.728 78.9933 122.786 78.7892H121.659V77.9689H123.81Z" fill="#0D5E4C"/>
<path d="M12.2013 34.3985C11.1369 34.3985 10.3421 34.4823 9.80991 34.65C9.28132 34.8177 8.88397 35.175 8.62879 35.7181C8.36996 36.265 8.24237 37.1289 8.24237 38.3137V47.5075H19.3464V38.27C19.3464 37.0852 19.2261 36.2285 18.9819 35.6999C18.7413 35.1713 18.3549 34.8214 17.8226 34.6537C17.2904 34.486 16.4665 34.4021 15.3437 34.4021V33.6293H27.7237V34.4021H27.4065C26.404 34.4313 25.653 34.5297 25.1536 34.6974C24.6542 34.8651 24.2751 35.2224 24.0162 35.7655C23.7574 36.3123 23.6298 37.1617 23.6298 38.3137V59.9786C23.6298 61.1634 23.7574 62.0274 24.0162 62.5742C24.2751 63.121 24.6761 63.4746 25.2229 63.6423C25.7697 63.81 26.6045 63.8938 27.7273 63.8938V64.6667H15.3474V63.8938H15.7556C16.7253 63.8938 17.4617 63.7954 17.9611 63.5986C18.4642 63.4017 18.8178 63.0226 19.0293 62.4612C19.2407 61.8998 19.3501 61.0723 19.3501 59.9786V49.2391H8.24601V59.9786C8.24601 61.0723 8.35902 61.8998 8.58869 62.4612C8.81835 63.0226 9.17196 63.4017 9.6568 63.5986C10.1416 63.7954 10.8562 63.8938 11.7967 63.8938H12.205V64.6667H0V63.8938H0.408291C1.31965 63.8938 2.02323 63.7954 2.52265 63.5986C3.02573 63.4017 3.39027 63.0299 3.61629 62.483C3.84231 61.9362 3.95896 61.1014 3.95896 59.9786V38.3137C3.95896 36.7352 3.70743 35.689 3.208 35.175C2.70857 34.6573 1.85189 34.3985 0.637954 34.3985H0V33.6256H12.2013V34.3985Z" fill="#0D5E4C"/>
<path d="M50.1986 56.016H50.2897V38.2663C50.2897 37.1143 50.1621 36.265 49.9033 35.7181C49.6481 35.175 49.2362 34.8177 48.6748 34.65C48.1134 34.4823 47.3004 34.3985 46.2396 34.3985V33.6256H55.2074V34.3985C54.0846 34.3985 53.2717 34.6427 52.7722 35.1276C52.2728 35.6124 52.0213 36.3998 52.0213 37.4935V65.1661H51.3833L33.7248 39.9979H33.6336V59.9786C33.6336 61.1014 33.7539 61.9435 33.9982 62.5049C34.2424 63.0663 34.6179 63.4309 35.1356 63.5949C35.6532 63.7626 36.3969 63.861 37.3666 63.8902H38.0009V64.663H28.3988V63.8902C29.6747 63.8282 30.5751 63.5876 31.1073 63.1648C31.6396 62.7382 31.9057 61.8888 31.9057 60.6129V37.4935C31.7854 37.3404 31.6541 37.1654 31.5193 36.9685C31.3807 36.7717 31.224 36.5675 31.0417 36.3561C30.4657 35.565 29.9882 35.0437 29.609 34.7849C29.2299 34.5261 28.6029 34.3985 27.7207 34.3985V33.6256H34.4575L50.2022 56.016H50.1986Z" fill="#0D5E4C"/>
<path d="M80.6008 34.3985C79.7806 34.3985 79.1681 34.5261 78.7562 34.7849C78.3479 35.0401 78.1438 35.5031 78.1438 36.1738C78.1438 36.5675 78.2495 37.1144 78.4646 37.8106L83.5172 55.8338H83.6083L87.385 43.0455L85.8831 37.7195C85.5513 36.6259 85.1722 35.8239 84.7457 35.3099C84.3228 34.7922 83.5791 34.4896 82.5183 34.3985V33.6257H93.5312V34.3985C92.3793 34.3985 91.5335 34.5516 91.0049 34.8542C90.4727 35.1567 90.2102 35.7036 90.2102 36.491C90.2102 36.8847 90.3305 37.5226 90.5748 38.4048L95.3102 55.6551H95.3977L100.086 38.9991C100.388 37.9966 100.541 37.2091 100.541 36.6295C100.541 35.8421 100.29 35.2734 99.7905 34.9234C99.291 34.5735 98.4781 34.3985 97.3553 34.3985V33.6257H105.321V34.3985C104.745 34.4605 104.274 34.6099 103.91 34.8542C103.545 35.0948 103.221 35.5213 102.933 36.1264C102.645 36.7316 102.331 37.6429 102 38.8569L94.3515 65.3447H93.5349L88.3 46.228H88.2089L82.5183 65.3447H81.833L74.0499 38.1715C73.6562 36.8373 73.2443 35.9041 72.8178 35.3755C72.3949 34.8432 71.7278 34.5151 70.8164 34.3948V33.622H80.6008V34.3985Z" fill="#0D5E4C"/>
<path d="M115.28 34.3985C114.46 34.3985 113.848 34.5261 113.436 34.7849C113.028 35.0401 112.823 35.5031 112.823 36.1738C112.823 36.5675 112.929 37.1144 113.144 37.8106L118.197 55.8338H118.288L122.065 43.0455L120.563 37.7195C120.231 36.6259 119.852 35.8239 119.425 35.3099C119.002 34.7922 118.259 34.4896 117.198 34.3985V33.6257H128.211V34.3985C127.055 34.3985 126.213 34.5516 125.685 34.8542C125.152 35.1567 124.89 35.7036 124.89 36.491C124.89 36.8847 125.01 37.5226 125.254 38.4048L129.99 55.6551H130.077L134.765 38.9991C135.068 37.9966 135.221 37.2091 135.221 36.6295C135.221 35.8421 134.97 35.2734 134.47 34.9234C133.971 34.5735 133.158 34.3985 132.035 34.3985V33.6257H140V34.3985C139.424 34.4605 138.954 34.6099 138.59 34.8542C138.225 35.0948 137.901 35.5213 137.613 36.1264C137.325 36.7316 137.011 37.6429 136.679 38.8569L129.031 65.3447H128.215L122.98 46.228H122.889L117.198 65.3447H116.513L108.73 38.1715C108.336 36.8373 107.924 35.9041 107.497 35.3755C107.075 34.8432 106.407 34.5151 105.496 34.3948V33.622H115.28V34.3985Z" fill="#0D5E4C"/>
<path d="M58.786 43.5413C58.786 46.742 59.136 49.0641 59.8359 50.5041C60.5358 51.944 61.6841 52.6622 63.2772 52.6622C64.8703 52.6622 66.1061 51.8967 66.7695 50.3583C67.433 48.8235 67.7647 46.5488 67.7647 43.5376C67.7647 40.2786 67.4002 37.9419 66.6711 36.5347C65.942 35.1239 64.801 34.4167 63.248 34.4167C61.9393 34.4167 60.9587 34.8943 60.3061 35.853C59.6536 36.8081 59.2344 37.9309 59.0558 39.2178C58.8771 40.5046 58.786 41.9446 58.786 43.5376M63.2772 33.4252C64.9249 33.4252 66.3284 33.9027 67.4804 34.8615C68.636 35.8166 69.5036 37.067 70.0796 38.6126C70.6592 40.1547 70.9472 41.7988 70.9472 43.5413C70.9472 45.2838 70.6556 46.9498 70.0796 48.4845C69.5036 50.0192 68.636 51.2623 67.4804 52.2211C66.3248 53.1762 64.9249 53.6538 63.2772 53.6538C61.6295 53.6538 60.3098 53.1944 59.1542 52.2758C57.9986 51.3571 57.1164 50.125 56.5112 48.5829C55.9024 47.0409 55.6035 45.3567 55.6035 43.5413C55.6035 41.7258 55.8915 40.1547 56.4711 38.6126C57.0471 37.067 57.9147 35.8166 59.0703 34.8615C60.2259 33.9027 61.6295 33.4252 63.2772 33.4252Z" fill="#0D5E4C"/>
<path d="M66.8276 56.1983H59.1758V57.4122H66.8276V56.1983Z" fill="#0D5E4C"/>
</svg>
