<svg width="228" height="243" viewBox="0 0 228 243" fill="none" xmlns="http://www.w3.org/2000/svg">
<path d="M338.322 169.161C338.322 122.692 301.548 84.8034 255.58 82.7418C253.574 36.7742 215.575 0 169.161 0C122.748 0 84.7477 36.7742 82.7419 82.7418C36.8299 84.7477 0 122.636 0 169.161C0 215.686 36.8299 253.519 82.7419 255.58C84.8035 301.548 122.748 338.322 169.161 338.322C215.575 338.322 253.519 301.492 255.58 255.58C301.548 253.574 338.322 215.575 338.322 169.161ZM324.504 162.475H255.747V96.2257C291.964 98.1758 321.272 126.592 324.504 162.475ZM242.319 242.375H175.847V225.047C178.076 216.856 182.868 205.099 193.287 194.457C204.208 183.314 216.355 178.299 224.88 175.959H242.208V242.319H242.264L242.319 242.375ZM95.8914 175.847H113.331C121.466 177.853 133.167 182.422 143.754 192.619C155.789 204.208 160.525 217.525 162.363 224.88V242.264H95.9471V175.792H95.8914V175.847ZM95.8914 95.9471H162.308V113.498C160.692 121.466 156.847 132.944 147.152 143.475C135.284 156.346 121.132 160.859 113.387 162.419H95.78V95.8914H95.8357L95.8914 95.9471ZM169.273 204.932C165.707 197.8 160.525 190.111 153.114 182.924C146.929 176.962 140.466 172.616 134.337 169.495C141.803 165.874 149.827 160.525 157.182 152.557C162.865 146.372 166.932 139.909 169.774 133.724C173.674 141.023 179.246 148.88 187.102 156.067C192.563 161.138 198.803 165.484 205.434 168.938C198.358 172.56 190.724 177.63 183.648 184.929C177.296 191.56 172.616 198.469 169.273 204.932ZM225.047 162.475C217.413 160.246 206.437 155.622 196.296 146.317C184.205 135.173 178.577 122.358 175.903 113.331V96.0585H242.375V162.531H225.047V162.475ZM242.096 82.5747H175.847V13.8182C211.674 17.0498 240.146 46.3577 242.096 82.5747ZM162.419 13.8182V82.5747H96.17C98.1201 46.3577 126.536 17.0498 162.419 13.8182ZM82.519 96.17V162.419H13.7625C16.9941 126.592 46.302 98.1758 82.519 96.17ZM13.7625 175.847H82.519V242.097C46.302 240.146 16.9941 211.73 13.7625 175.847ZM96.1143 255.748H162.363V324.504C126.592 321.272 98.1758 291.964 96.1143 255.748ZM175.847 324.504V255.748H242.096C240.146 291.964 211.73 321.217 175.847 324.504ZM255.747 242.097V175.847H324.504C321.272 211.73 291.964 240.146 255.747 242.097Z" fill="#F6EFE3"/>
</svg>
