<svg width="400" height="230" viewBox="0 0 400 230" fill="none" xmlns="http://www.w3.org/2000/svg">
<path d="M231.478 31.6093C231.478 22.9261 224.607 15.8463 216.017 15.461C215.643 6.87158 208.542 0 199.869 0C191.196 0 184.096 6.87158 183.721 15.461C175.142 15.8359 168.26 22.9157 168.26 31.6093C168.26 40.3028 175.142 47.3722 183.721 47.7575C184.106 56.3469 191.196 63.2185 199.869 63.2185C208.542 63.2185 215.632 56.3365 216.017 47.7575C224.607 47.3826 231.478 40.282 231.478 31.6093ZM228.896 30.3599H216.049V17.9806C222.816 18.345 228.293 23.6549 228.896 30.3599ZM213.54 45.2899H201.119V42.052C201.535 40.5215 202.43 38.3247 204.377 36.3361C206.418 34.2538 208.688 33.3167 210.281 32.8795H213.519V45.2795H213.529L213.54 45.2899ZM186.178 32.8586H189.437C190.957 33.2334 193.143 34.0872 195.122 35.9925C197.37 38.1581 198.255 40.6464 198.599 42.0207V45.2691H186.189V32.8482H186.178V32.8586ZM186.178 17.9286H198.589V21.2082C198.287 22.697 197.568 24.8418 195.757 26.8096C193.539 29.2146 190.895 30.0579 189.447 30.3495H186.157V17.9182H186.168L186.178 17.9286ZM199.89 38.2934C199.224 36.9608 198.255 35.524 196.871 34.1809C195.715 33.0669 194.507 32.2548 193.362 31.6717C194.757 30.995 196.256 29.9955 197.631 28.5066C198.693 27.351 199.453 26.1432 199.984 24.9875C200.713 26.3515 201.754 27.8195 203.222 29.1626C204.242 30.11 205.408 30.9221 206.647 31.5676C205.325 32.2443 203.898 33.1918 202.576 34.5557C201.389 35.7947 200.515 37.0857 199.89 38.2934ZM210.312 30.3599C208.886 29.9434 206.835 29.0793 204.94 27.3405C202.68 25.2582 201.629 22.8636 201.129 21.1769V17.9494H213.55V30.3703H210.312V30.3599ZM213.498 15.4298H201.119V2.58205C207.813 3.18591 213.133 8.66235 213.498 15.4298ZM198.609 2.58205V15.4298H186.23C186.595 8.66235 191.904 3.18591 198.609 2.58205ZM183.679 17.9702V30.3495H170.832C171.435 23.6549 176.912 18.345 183.679 17.9702ZM170.832 32.8586H183.679V45.2379C176.912 44.8735 171.435 39.5636 170.832 32.8586ZM186.22 47.7887H198.599V60.6365C191.915 60.0326 186.605 54.5561 186.22 47.7887ZM201.119 60.6365V47.7887H213.498C213.133 54.5561 207.824 60.0222 201.119 60.6365ZM216.049 45.2379V32.8586H228.896C228.293 39.5636 222.816 44.8735 216.049 45.2379Z" fill="#D0C2AA"/>
<path d="M39.4695 229.749H36.7312V218.974H32.8374V216.329H43.3529V218.974H39.4695V229.749Z" fill="#D0C2AA"/>
<path d="M54.7125 221.556V216.329H57.4507V229.749H54.7125V224.211H49.2361V229.749H46.4874V216.329H49.2361V221.556H54.7125Z" fill="#D0C2AA"/>
<path d="M64.3944 224.169V227.136H71.0265V229.749H61.6458V216.329H70.8391V218.932H64.3944V221.639H70.1103V224.169H64.3944Z" fill="#D0C2AA"/>
<path d="M83.6875 218.932V222.42H86.3112C86.8421 222.42 87.2898 222.264 87.6438 221.93C88.0082 221.608 88.1852 221.191 88.1852 220.681C88.1852 220.171 88.0082 219.744 87.6438 219.421C87.2794 219.099 86.8421 218.932 86.3112 218.932H83.6875ZM88.154 229.749L85.4678 224.919H83.6979V229.749H80.9492V216.329H86.4049C87.2586 216.329 88.0291 216.517 88.7162 216.891C89.4138 217.266 89.9552 217.776 90.3508 218.432C90.7464 219.088 90.9443 219.827 90.9443 220.66C90.9443 221.493 90.6944 222.295 90.1946 222.972C89.6949 223.659 89.0181 224.159 88.1644 224.492L91.3295 229.749H88.1644H88.154Z" fill="#D0C2AA"/>
<path d="M97.3889 216.329H94.6403V229.76H97.3889V216.329Z" fill="#D0C2AA"/>
<path d="M107.155 229.749H104.417V218.974H100.513V216.329H111.039V218.974H107.155V229.749Z" fill="#D0C2AA"/>
<path d="M119.471 229.999C118.42 229.999 117.472 229.76 116.64 229.291C115.817 228.823 115.182 228.167 114.734 227.344C114.287 226.522 114.068 225.606 114.068 224.596V216.329H116.806V224.596C116.806 225.398 117.046 226.064 117.514 226.584C117.983 227.095 118.639 227.355 119.471 227.355C120.304 227.355 120.95 227.095 121.429 226.584C121.908 226.064 122.147 225.398 122.147 224.596V216.329H124.885V224.596C124.885 225.606 124.656 226.522 124.209 227.344C123.761 228.167 123.126 228.812 122.303 229.291C121.481 229.76 120.533 229.999 119.471 229.999Z" fill="#D0C2AA"/>
<path d="M135.444 224.45L133.809 219.744L132.175 224.45H135.444ZM140.202 229.749H137.318L136.339 226.99H131.269L130.29 229.749H127.51L132.508 216.329H135.194L140.181 229.749H140.202Z" fill="#D0C2AA"/>
<path d="M151.914 229.749H142.939V216.329H145.688V227.105H151.914V229.749Z" fill="#D0C2AA"/>
<path d="M167.198 227.355C167.896 227.355 168.531 227.168 169.114 226.793C169.707 226.418 170.176 225.897 170.53 225.242C170.884 224.586 171.061 223.846 171.061 223.045C171.061 222.243 170.884 221.514 170.53 220.858C170.176 220.202 169.707 219.682 169.114 219.307C168.531 218.932 167.896 218.745 167.198 218.745C166.5 218.745 165.876 218.932 165.282 219.307C164.689 219.682 164.22 220.202 163.866 220.858C163.512 221.514 163.335 222.243 163.335 223.045C163.335 223.846 163.512 224.586 163.866 225.242C164.22 225.908 164.689 226.418 165.282 226.793C165.876 227.168 166.511 227.355 167.198 227.355ZM167.198 230C166.021 230 164.928 229.687 163.918 229.073C162.908 228.459 162.096 227.615 161.503 226.553C160.899 225.481 160.608 224.315 160.608 223.045C160.608 221.775 160.909 220.629 161.503 219.557C162.107 218.484 162.908 217.641 163.918 217.027C164.928 216.402 166.021 216.09 167.198 216.09C168.374 216.09 169.468 216.402 170.478 217.027C171.488 217.641 172.289 218.484 172.893 219.557C173.487 220.619 173.788 221.785 173.788 223.045C173.788 224.304 173.487 225.481 172.893 226.553C172.289 227.615 171.488 228.459 170.478 229.073C169.468 229.687 168.374 230 167.198 230Z" fill="#D0C2AA"/>
<path d="M186.356 216.329V218.974H180.026V222.201H185.471V224.721H180.026V229.749H177.277V216.329H186.356Z" fill="#D0C2AA"/>
<path d="M202.565 224.45L200.931 219.744L199.296 224.45H202.565ZM207.324 229.749H204.44L203.461 226.99H198.39L197.412 229.749H194.632L199.629 216.329H202.316L207.303 229.749H207.324Z" fill="#D0C2AA"/>
<path d="M212.81 218.932V222.42H215.434C215.965 222.42 216.413 222.264 216.767 221.93C217.131 221.608 217.308 221.191 217.308 220.681C217.308 220.171 217.131 219.744 216.767 219.421C216.402 219.099 215.965 218.932 215.434 218.932H212.81ZM217.277 229.749L214.591 224.919H212.821V229.749H210.072V216.329H215.528C216.381 216.329 217.152 216.517 217.839 216.891C218.537 217.266 219.078 217.776 219.474 218.432C219.869 219.088 220.067 219.827 220.067 220.66C220.067 221.493 219.817 222.295 219.317 222.972C218.818 223.659 218.141 224.159 217.287 224.492L220.452 229.749H217.287H217.277Z" fill="#D0C2AA"/>
<path d="M229.333 229.749H226.595V218.974H222.701V216.329H233.217V218.974H229.333V229.749Z" fill="#D0C2AA"/>
<path d="M245.42 216.329V218.974H239.09V222.201H244.535V224.721H239.09V229.749H236.341V216.329H245.42Z" fill="#D0C2AA"/>
<path d="M254.134 229.999C253.082 229.999 252.135 229.76 251.302 229.291C250.479 228.823 249.844 228.167 249.397 227.344C248.949 226.522 248.73 225.606 248.73 224.596V216.329H251.468V224.596C251.468 225.398 251.708 226.064 252.176 226.584C252.645 227.095 253.301 227.355 254.134 227.355C254.967 227.355 255.612 227.095 256.091 226.584C256.57 226.064 256.81 225.398 256.81 224.596V216.329H259.548V224.596C259.548 225.606 259.319 226.522 258.871 227.344C258.423 228.167 257.788 228.812 256.966 229.291C256.143 229.76 255.196 229.999 254.134 229.999Z" fill="#D0C2AA"/>
<path d="M272.614 229.749H263.64V216.329H266.399V227.105H272.614V229.749Z" fill="#D0C2AA"/>
<path d="M288.044 222.68H294.176V229.75H292.552L292.073 227.99C291.656 228.542 291.084 229.01 290.334 229.406C289.595 229.802 288.783 230 287.887 230C286.711 230 285.618 229.687 284.608 229.073C283.598 228.459 282.786 227.615 282.192 226.553C281.588 225.481 281.297 224.315 281.297 223.045C281.297 221.775 281.599 220.629 282.192 219.557C282.786 218.484 283.598 217.641 284.608 217.027C285.618 216.402 286.711 216.09 287.887 216.09C288.96 216.09 289.928 216.319 290.792 216.756C291.656 217.204 292.364 217.787 292.906 218.505C293.447 219.213 293.801 219.963 293.978 220.733H291.125C290.927 220.223 290.553 219.765 289.98 219.359C289.418 218.943 288.731 218.745 287.898 218.745C287.211 218.745 286.575 218.932 285.982 219.307C285.389 219.682 284.92 220.202 284.566 220.858C284.212 221.514 284.035 222.243 284.035 223.045C284.035 223.846 284.212 224.586 284.566 225.242C284.92 225.908 285.389 226.418 285.982 226.793C286.575 227.168 287.211 227.355 287.898 227.355C288.835 227.355 289.584 227.105 290.147 226.626C290.719 226.137 291.084 225.606 291.25 225.023H288.033V222.68H288.044Z" fill="#D0C2AA"/>
<path d="M300.975 216.329H298.227V229.76H300.975V216.329Z" fill="#D0C2AA"/>
<path d="M310.148 225.991L313.438 216.329H316.239L311.46 229.749H308.68L303.922 216.329H306.838L310.148 225.991Z" fill="#D0C2AA"/>
<path d="M321.934 216.329H319.185V229.76H321.934V216.329Z" fill="#D0C2AA"/>
<path d="M334.603 225.106V216.329H337.248V229.749H334.739L328.773 220.962V229.749H326.128V216.329H328.648L334.603 225.106Z" fill="#D0C2AA"/>
<path d="M347.473 222.68H353.606V229.75H351.982L351.503 227.99C351.086 228.542 350.514 229.01 349.764 229.406C349.025 229.802 348.213 230 347.317 230C346.141 230 345.048 229.687 344.038 229.073C343.028 228.459 342.216 227.615 341.622 226.553C341.018 225.481 340.727 224.315 340.727 223.045C340.727 221.775 341.029 220.629 341.622 219.557C342.226 218.484 343.028 217.641 344.038 217.027C345.048 216.402 346.141 216.09 347.317 216.09C348.39 216.09 349.358 216.319 350.222 216.756C351.086 217.204 351.794 217.787 352.336 218.505C352.877 219.213 353.231 219.963 353.408 220.733H350.555C350.357 220.223 349.972 219.765 349.41 219.359C348.848 218.943 348.161 218.745 347.328 218.745C346.641 218.745 346.005 218.932 345.412 219.307C344.819 219.682 344.35 220.202 343.996 220.858C343.642 221.514 343.465 222.243 343.465 223.045C343.465 223.846 343.642 224.586 343.996 225.242C344.35 225.908 344.819 226.418 345.412 226.793C346.005 227.168 346.641 227.355 347.328 227.355C348.265 227.355 349.014 227.105 349.577 226.626C350.149 226.137 350.514 225.606 350.68 225.023H347.463V222.68H347.473Z" fill="#D0C2AA"/>
<path d="M34.8473 98.2446C31.8071 98.2446 29.5374 98.4841 28.0173 98.963C26.5077 99.4419 25.3728 100.462 24.644 102.014C23.9048 103.575 23.5404 106.043 23.5404 109.427V135.684H55.2537V109.302C55.2537 105.918 54.9102 103.471 54.2126 101.961C53.5254 100.452 52.4218 99.4523 50.9017 98.9734C49.3817 98.4945 47.0287 98.255 43.8219 98.255V96.0478H79.1793V98.255H78.2735C75.4104 98.3383 73.2656 98.6194 71.8392 99.0983C70.4129 99.5773 69.3301 100.598 68.5909 102.149C67.8516 103.711 67.4872 106.136 67.4872 109.427V171.302C67.4872 174.686 67.8516 177.153 68.5909 178.715C69.3301 180.277 70.4753 181.287 72.0371 181.765C73.5988 182.244 75.983 182.484 79.1897 182.484V184.691H43.8324V182.484H44.9984C47.7679 182.484 49.871 182.203 51.2974 181.641C52.7342 181.078 53.7441 179.996 54.3479 178.392C54.9518 176.789 55.2642 174.425 55.2642 171.302V140.63H23.5508V171.302C23.5508 174.425 23.8736 176.789 24.5295 178.392C25.1854 179.996 26.1953 181.078 27.58 181.641C28.9648 182.203 31.0054 182.484 33.6916 182.484H34.8577V184.691H3.05176e-05V182.484H1.16612C3.76899 182.484 5.7784 182.203 7.20477 181.641C8.64156 181.078 9.68271 180.016 10.3282 178.455C10.9737 176.893 11.3069 174.509 11.3069 171.302V109.427C11.3069 104.918 10.5885 101.93 9.16213 100.462C7.73576 98.9838 5.28906 98.2446 1.82204 98.2446H3.05176e-05V96.0374H34.8473V98.2446Z" fill="#D0C2AA"/>
<path d="M143.367 159.985H143.627V109.291C143.627 106.001 143.263 103.575 142.524 102.014C141.795 100.462 140.618 99.4419 139.015 98.963C137.412 98.4841 135.09 98.2446 132.06 98.2446V96.0374H157.672V98.2446C154.466 98.2446 152.144 98.9422 150.717 100.327C149.291 101.712 148.573 103.96 148.573 107.084V186.117H146.751L96.3175 114.237H96.0572V171.302C96.0572 174.509 96.4008 176.914 97.0983 178.517C97.7959 180.12 98.8683 181.162 100.347 181.63C101.825 182.109 103.949 182.39 106.719 182.473H108.53V184.681H81.1063V182.473C84.7503 182.296 87.322 181.609 88.842 180.402C90.3621 179.183 91.1221 176.758 91.1221 173.114V107.084C90.7786 106.647 90.4038 106.147 90.0185 105.585C89.6229 105.022 89.1752 104.439 88.6546 103.836C87.0096 101.576 85.6457 100.087 84.5629 99.3482C83.4801 98.609 81.6893 98.2446 79.1698 98.2446V96.0374H98.4102L143.377 159.985H143.367Z" fill="#D0C2AA"/>
<path d="M230.197 98.2438C227.855 98.2438 226.106 98.6082 224.929 99.3474C223.763 100.076 223.18 101.398 223.18 103.314C223.18 104.439 223.482 106 224.096 107.989L238.527 159.463H238.787L249.573 122.94L245.284 107.729C244.336 104.605 243.253 102.315 242.035 100.847C240.827 99.3682 238.703 98.5041 235.674 98.2438V96.0365H267.127V98.2438C263.837 98.2438 261.421 98.681 259.912 99.5452C258.392 100.409 257.642 101.971 257.642 104.22C257.642 105.344 257.986 107.166 258.683 109.686L272.208 158.953H272.458L285.847 111.383C286.711 108.52 287.148 106.271 287.148 104.616C287.148 102.367 286.43 100.743 285.003 99.743C283.577 98.7435 281.255 98.2438 278.048 98.2438V96.0365H300.798V98.2438C299.153 98.4208 297.809 98.8476 296.768 99.5452C295.727 100.232 294.801 101.45 293.978 103.179C293.156 104.907 292.26 107.51 291.313 110.977L269.469 186.627H267.137L252.186 132.029H251.926L235.674 186.627H233.716L211.488 109.02C210.363 105.209 209.187 102.544 207.969 101.034C206.761 99.514 204.856 98.5769 202.253 98.2334V96.0261H230.197V98.2334V98.2438Z" fill="#D0C2AA"/>
<path d="M329.242 98.2438C326.9 98.2438 325.15 98.6082 323.974 99.3474C322.808 100.076 322.225 101.398 322.225 103.314C322.225 104.439 322.527 106 323.141 107.989L337.571 159.463H337.832L348.618 122.94L344.328 107.729C343.381 104.605 342.298 102.315 341.08 100.847C339.872 99.3682 337.748 98.5041 334.719 98.2438V96.0365H366.172V98.2438C362.871 98.2438 360.466 98.681 358.957 99.5452C357.436 100.409 356.687 101.971 356.687 104.22C356.687 105.344 357.03 107.166 357.728 109.686L371.252 158.953H371.502L384.892 111.383C385.756 108.52 386.193 106.271 386.193 104.616C386.193 102.367 385.475 100.743 384.048 99.743C382.622 98.7435 380.3 98.2438 377.093 98.2438V96.0365H399.842V98.2438C398.197 98.4208 396.854 98.8476 395.813 99.5452C394.772 100.232 393.845 101.45 393.023 103.179C392.2 104.907 391.305 107.51 390.358 110.977L368.514 186.627H366.182L351.231 132.029H350.971L334.719 186.627H332.761L310.533 109.02C309.408 105.209 308.232 102.544 307.014 101.034C305.806 99.514 303.901 98.5769 301.298 98.2334V96.0261H329.242V98.2334V98.2438Z" fill="#D0C2AA"/>
<path d="M167.895 124.354C167.895 133.496 168.895 140.128 170.894 144.24C172.893 148.353 176.173 150.404 180.722 150.404C185.272 150.404 188.802 148.217 190.697 143.824C192.591 139.44 193.539 132.944 193.539 124.344C193.539 115.036 192.498 108.362 190.415 104.343C188.333 100.314 185.074 98.2943 180.639 98.2943C176.901 98.2943 174.101 99.6582 172.237 102.396C170.373 105.124 169.176 108.331 168.666 112.006C168.156 115.681 167.895 119.794 167.895 124.344M180.722 95.4624C185.428 95.4624 189.437 96.8263 192.727 99.5645C196.027 102.292 198.505 105.863 200.15 110.278C201.806 114.682 202.628 119.378 202.628 124.354C202.628 129.331 201.795 134.089 200.15 138.472C198.505 142.855 196.027 146.406 192.727 149.144C189.426 151.872 185.428 153.236 180.722 153.236C176.016 153.236 172.247 151.924 168.947 149.3C165.646 146.676 163.127 143.157 161.399 138.753C159.66 134.349 158.806 129.539 158.806 124.354C158.806 119.169 159.629 114.682 161.284 110.278C162.929 105.863 165.407 102.292 168.707 99.5645C172.008 96.8263 176.016 95.4624 180.722 95.4624Z" fill="#D0C2AA"/>
<path d="M190.864 160.504H169.01V163.971H190.864V160.504Z" fill="#D0C2AA"/>
</svg>
